<svg width="3804" height="1275" viewBox="0 0 3804 1275" fill="none" xmlns="http://www.w3.org/2000/svg">
<g clip-path="url(#clip0_19_839)">
<path d="M1341.46 625.082L1301.83 607.125L1322.88 644.896L1341.46 625.082Z" fill="#C0E8E7"/>
<path d="M1299.5 496L1249.5 594L1313.6 644.896L1408.5 648L1299.5 496Z" fill="#F4FFFC"/>
<path d="M1319.17 638.085C1332.05 638.085 1336.51 624.875 1337.13 618.27L1342.7 680.191L1261.58 689.479L1265 538C1279.65 558.847 1306.41 624.462 1309.88 629.416C1313.35 634.37 1317.52 637.259 1319.17 638.085Z" fill="#63C5E0"/>
<path d="M1364.99 534.677L1340.84 607.744L1404 640.562L1364.99 534.677Z" fill="#F6FEF1"/>
<path d="M1341.46 605.267L1360.66 586.691L1374.28 670.284L1345.18 684.526L1332.79 675.237C1339.23 668.302 1339.19 654.597 1338.36 648.611L1335.89 620.747L1341.46 605.267Z" fill="#8FD8E9"/>
<path d="M1467.16 578.022L1455.4 586.691L1449.82 609.601L1469.64 607.125L1467.16 578.022Z" fill="#F8FBF2"/>
<path d="M1455.4 586.691L1390.38 633.131L1405.86 680.191L1483.26 659.138L1497.5 556.969L1466.54 578.641L1461.59 602.171L1455.4 586.691Z" fill="#D8EFE7"/>
<path d="M1360.66 586.691L1363.75 647.992L1360.66 674.618L1371.18 703.721L1389.76 624.462L1371.18 590.406C1367.72 580.994 1362.72 584.007 1360.66 586.691Z" fill="#9AD9E8"/>
<path d="M1353.84 670.284L1334.65 701.244L1386.66 714.867L1421.96 672.761L1384.81 615.174L1369.33 682.668L1363.13 624.462L1353.84 670.284Z" fill="#73D7E7"/>
<path d="M1396.57 685.764H1340.22L1337.75 703.102C1354.67 704.753 1389.26 708.055 1392.24 708.055C1395.21 708.055 1396.36 693.194 1396.57 685.764Z" fill="#A0E2F0"/>
<path d="M1563.14 670.903L1636.82 741.493L1649.83 800.937H1534.03L1438.06 722.297L1440.53 642.419L1469.64 679.572L1486.97 714.247L1446.11 620.747L1448.58 619.509L1462.83 639.323L1477.69 623.843L1490.69 566.257L1494.41 557.588L1498.74 555.73L1547.66 651.707L1563.14 670.903Z" fill="#FCFEF1"/>
<path d="M1475.83 704.34C1464.09 687.252 1440.53 652.628 1439.92 650.485L1464.68 742.731L1498.74 747.066L1475.83 704.34Z" fill="#75D1EA"/>
<path d="M1549.51 769.357C1557.77 762.546 1574.41 748.923 1574.9 748.923L1670.26 836.851L1715.46 810.225L1628.15 733.443L1641.16 784.218H1636.82L1604 733.443L1608.96 763.165L1569.95 678.333L1551.99 661.615L1560.04 712.39L1509.89 635.608L1514.84 700.625L1504.93 674.618V703.721L1501.84 707.436L1496.88 692.575L1494.41 706.198L1535.27 769.357H1549.51Z" fill="#D1EFED"/>
<path d="M1491.93 712.39C1476.86 682.461 1446.6 622.233 1446.11 620.747L1415.77 650.469L1442.39 681.429L1440.53 647.992L1469.02 681.429L1486.36 717.344L1491.93 712.39Z" fill="#D1EFED"/>
<path d="M1543.94 776.788L1572.43 749.542L1589.76 761.307L1600.29 800.937L1538.37 780.503L1543.94 776.788Z" fill="#68C4DD"/>
<path d="M1708.03 823.847L1662.21 787.933L1660.97 814.559L1708.03 823.847Z" fill="#EFFDFF"/>
<path d="M1693.79 843.662L1741.47 792.268L1767.48 839.328L1693.79 843.662Z" fill="#DDF4EC"/>
<path d="M1739.61 794.125C1741.26 790.41 1744.81 782.98 1745.8 782.98L1838.07 882.672L1790.39 906.821L1774.91 895.056L1739.61 794.125Z" fill="#FAFCEF"/>
<path d="M1752 826.324H1745.18L1721.04 910.536L1771.81 932.209L1773.67 888.864L1752 826.324Z" fill="#98DCE7"/>
<path d="M1823.2 830.659L1842.4 870.288L1867.79 920.444L1967.48 900.01L1894.41 843.662L1862.83 864.715L1827.54 830.659H1823.2Z" fill="#EBF8EE"/>
<path d="M2253.55 745.208L2223.21 774.93C2228.79 776.788 2240.43 780.379 2242.41 779.884C2244.39 779.388 2258.92 764.403 2265.94 756.973C2263.67 753.464 2259 746.322 2258.51 745.827C2258.01 745.332 2255 745.208 2253.55 745.208Z" fill="#EAF8F8"/>
<path d="M1863.45 864.715C1873.86 868.678 1914.02 915.077 1932.8 937.782L1254.77 986.699L1243.01 714.248L1285.73 623.224L1312.98 678.953L1339.6 672.761L1349.51 688.241C1359.42 700.13 1367.67 698.561 1370.56 696.29L1425.05 640.562L1439.3 669.665L1438.06 649.231L1493.17 742.731L1467.16 691.337L1486.97 714.248L1488.21 704.959C1488.71 710.904 1518.97 752.019 1534.03 771.834H1550.13L1542.08 780.503L1599.05 798.46C1583.2 781.122 1574.28 759.037 1571.81 750.162L1582.95 734.062C1587.41 762.298 1607.51 778.026 1617.01 782.36C1630.88 792.763 1653.34 789.172 1662.83 786.076C1663.04 786.695 1664.19 789.172 1667.16 794.125C1670.14 799.079 1679.96 808.986 1684.5 813.321C1691.44 819.265 1723.31 804.652 1738.37 796.602C1733.42 809.482 1712.37 829.627 1702.46 838.089C1710.92 834.58 1729.95 826.943 1738.37 824.467C1746.79 821.99 1747.66 824.673 1747.04 826.324C1738.13 846.139 1736.72 870.494 1737.13 880.195L1770.57 931.59L1805.87 875.861C1811.44 868.43 1823.45 852.579 1826.92 848.616C1830.39 844.653 1834.97 846.964 1836.83 848.616C1841.37 852.331 1853.05 860.752 1863.45 864.715Z" fill="#45B3D4"/>
<path d="M1769.33 875.861L1767.48 939.02L1812.06 937.782L1779.86 900.629L1769.33 875.861Z" fill="#66C5E1"/>
<path d="M1779.24 900.629L1807.11 933.447C1886.36 970.6 1913.2 931.177 1916.71 906.821C1910.27 902.363 1897.92 875.242 1892.56 862.238L1883.89 871.526L1845.5 880.815L1815.15 865.954L1828.78 848.616H1837.45L1822.59 830.659L1815.15 843.662L1807.11 841.804L1771.19 811.463C1772.68 830.287 1795.75 858.11 1807.11 869.669L1822.59 898.772H1820.11L1786.67 859.761L1776.76 857.285L1779.24 900.629Z" fill="#97D9E5"/>
<path d="M1537.75 927.874C1430.75 901.62 1347.45 864.921 1319.17 849.854L1321.03 923.54L1508.03 955.739L1537.75 927.874Z" fill="#3192BD"/>
<path d="M1821.35 932.828L1661.59 931.59L1659.11 937.782L1805.87 957.596L1821.35 932.828Z" fill="#6DC2D7"/>
<path d="M1795.96 939.639C1752.41 939.226 1664.44 938.029 1660.97 936.543L1659.11 953.262L1738.99 969.361L1795.96 939.639Z" fill="#48AED4"/>
<path d="M1960.05 894.437C1905.56 920.691 1746.63 943.767 1673.98 952.023L1800.91 1028.81L2019.49 943.355L1960.05 894.437Z" fill="#5EC0DB"/>
<path d="M2028.78 950.166L2142.1 836.232L2145.19 789.172L2077.08 829.42C2047.56 846.552 1988.29 880.814 1987.29 880.814C1986.3 880.814 1967.07 889.896 1957.57 894.437L2028.78 950.166Z" fill="#8ED6E2"/>
<path d="M2191.63 750.781C2133.18 797.841 2011.24 866.16 1957.57 894.437C1995.72 881.557 2097.72 820.545 2143.95 791.648C2126.12 822.857 2101.44 851.712 2091.32 862.238L2191.63 821.37L2194.73 752.638L2191.63 750.781Z" fill="#F6FBF5"/>
<path d="M2186.68 795.364L2152 819.513L2075.84 918.586L2352.01 950.166L2432.51 732.205C2405.26 708.881 2350.03 661.862 2347.05 660.376C2344.08 658.89 2301.23 714.247 2280.18 742.112L2257.89 747.685L2241.17 767.499L2228.79 771.215L2194.11 752.019L2186.68 795.364Z" fill="#B3E5E6"/>
<path d="M2110.52 930.97C1948.53 929.98 1804.01 971.838 1752 992.891V1008.37L2072.13 1017.66L2110.52 930.97Z" fill="#4BB6D6"/>
<path d="M2090.7 859.761L2008.97 980.507L2353.87 1030.66L2322.91 799.079L2243.65 904.964L2204.64 844.281L2107.42 900.629L2155.1 816.417L2090.7 859.761Z" fill="#67C3DA"/>
<path d="M2257.89 773.072L2280.8 737.777L2310.52 701.244L2317.95 723.536L2285.13 755.734L2257.89 773.072Z" fill="#DDF7E9"/>
<path d="M2438.7 667.807L2443.03 675.237L2428.79 837.47L2313.62 820.132L2394.73 719.82L2388.54 708.055L2347.67 664.092L2352.01 744.589L2316.09 786.695L2326 752.638L2316.09 774.311L2322.29 721.678L2292.56 749.542L2310.52 702.483L2280.8 737.777L2296.9 712.39L2347.67 656.661L2417.03 692.575L2438.7 667.807Z" fill="#FCFEF0"/>
<path d="M2531.58 607.744L2471.52 699.387L2531.58 704.959V607.744Z" fill="#E7FFFF"/>
<path d="M2227.55 931.59L2439.94 671.522C2449.43 679.365 2470.52 695.919 2478.95 699.386L2530.96 615.174V940.258L2227.55 931.59Z" fill="#2E98C2"/>
<path d="M2394.73 726.632L2397.83 722.916L2425.69 759.45L2394.73 726.632Z" fill="#55BDD6"/>
<path d="M2443.65 755.734L2421.98 734.681L2449.22 764.403L2443.65 755.734Z" fill="#55BDD6"/>
<path d="M2441.79 766.88L2436.84 765.642L2454.18 783.599L2441.79 766.88Z" fill="#55BDD6"/>
<path d="M2464.09 690.098L2439.94 671.522L2435.6 680.81L2441.17 704.34L2446.75 714.867L2483.28 753.258L2464.7 727.87L2450.46 708.055L2476.47 726.632L2460.37 692.575L2464.09 690.098Z" fill="#55BDD6"/>
<path d="M1503.69 917.967L1504.31 925.397L1537.75 926.636L1530.94 906.821L1503.69 917.967Z" fill="#21618D"/>
<path d="M2371.2 850.473C2369.76 848.822 2366.5 844.777 2365.01 841.804L2350.77 846.758L2371.82 857.285L2371.2 850.473Z" fill="#84D3FC"/>
<path d="M1501.22 903.106L1498.12 904.964L1499.98 926.017L1508.65 924.159L1501.22 903.106Z" fill="#8FD7FF"/>
<path d="M1498.74 902.487C1495.02 909.917 1487.59 924.902 1487.59 925.397L1508.03 926.017L1498.74 902.487Z" fill="#2A608E"/>
<path d="M2496.9 832.516L2472.13 880.195L2532.82 875.861L2535.91 800.937L2517.34 763.784L2488.23 832.516H2496.9Z" fill="#27699B"/>
<path d="M2426.31 779.884L2410.21 826.324L2418.88 821.99C2413.31 840.566 2401.92 877.842 2400.93 878.338C2399.94 878.833 2457.48 887.213 2486.38 891.341C2475.85 875.861 2454.18 844.034 2451.7 840.566C2449.22 837.098 2456.04 837.47 2459.75 838.089L2441.79 813.321H2447.99L2426.31 779.884Z" fill="#2C7AA8"/>
<path d="M2386.06 869.049L2369.97 885.768L2366.25 893.199L2443.65 907.44L2419.5 854.188H2425.07L2405.88 799.079L2403.4 800.937C2398.45 833.135 2382.76 857.697 2375.54 865.953L2386.06 869.049Z" fill="#25699A"/>
<path d="M2345.2 828.801L2323.52 849.854L2316.71 852.331L2312.38 919.825C2342.1 915.077 2399.19 903.849 2389.78 896.914C2380.37 889.979 2371.82 871.32 2368.73 862.857H2376.78L2363.77 844.281H2368.73L2350.15 810.225L2340.86 828.801H2345.2Z" fill="#256895"/>
<path d="M1625.68 873.384C1623.2 883.291 1606.48 918.793 1598.43 935.305L1667.78 955.739C1676.25 956.358 1690.82 955.491 1681.41 947.07C1671.99 938.648 1658.91 909.298 1653.54 895.675H1659.73L1650.45 877.099H1653.54L1643.63 862.857H1647.97L1634.97 834.374L1621.34 873.384H1625.68Z" fill="#3597BE"/>
<path d="M1885.74 1000.32C1714.35 935.924 1516.7 919.825 1439.3 919.825L1413.29 982.365L1857.88 1102.49L1885.74 1000.32Z" fill="#77C8DD"/>
<path d="M1896.89 1010.85C1715.59 958.339 1584.81 962.137 1542.08 970.6L1834.35 1062.86L1896.89 1010.85Z" fill="#3DAACB"/>
<path d="M2530.96 859.762C2405.14 882.548 2343.13 905.996 2327.86 914.871V938.401L2530.96 887.007V859.762Z" fill="#EAFAF0"/>
<path d="M2531.58 882L2304.33 938.401L2313 969.981L2531.58 928.494V882Z" fill="#B9E5E6"/>
<path d="M2532.2 920.444L2313.62 963.788L2375.54 1008.37L2532.2 979.269V920.444Z" fill="#92D8E2"/>
<path d="M2458.55 1003.43C2458.53 1003.42 2458.52 1003.42 2458.51 1003.42L2458.55 1003.43C2460.59 1003.76 2508.4 991.615 2532.2 985.461V1020.76L2458.55 1003.43Z" fill="#59C1DE"/>
<path d="M2532.2 967.504C2494.22 976.379 2417.77 994.13 2415.79 994.13L2458.51 1012.09L2532.2 991.653V967.504Z" fill="#6FC7DD"/>
<path d="M2230.02 888.245C2228.79 898.152 2208.97 902.487 2205.26 902.487L2192.25 969.361L2280.18 973.076L2294.42 865.334V852.331L2277.08 856.046L2285.75 844.9V835.612L2289.47 838.708L2294.42 831.897C2286.5 832.392 2281.63 825.911 2280.18 822.609C2283.48 822.815 2289.72 823.104 2288.23 822.609C2286.37 821.99 2275.23 795.364 2275.23 796.602C2275.23 797.593 2265.73 812.702 2260.98 820.132H2263.46L2254.79 833.755H2263.46L2249.84 852.331L2242.41 838.708C2241.91 840.194 2231.88 855.427 2226.93 862.857L2233.74 864.096L2223.83 880.814L2230.02 888.245Z" fill="#286592"/>
<path d="M2253.55 858.523C2254.79 857.285 2257.39 854.808 2257.89 854.808V856.665L2254.17 863.477L2256.65 869.669L2252.32 864.096L2253.55 858.523Z" fill="#64B1DD"/>
<path d="M2259.13 880.814C2266.76 890.722 2282.53 911.156 2284.51 913.632L2309.9 915.49C2307.01 898.565 2300.12 865.582 2295.66 869.05C2291.2 872.517 2269.45 878.338 2259.13 880.814Z" fill="#3285B1"/>
<path d="M2265.94 917.348C2257.06 929.938 2238.69 956.482 2236.22 961.931L2260.37 980.507C2275.43 969.568 2305.57 947.07 2305.57 944.593C2305.57 942.116 2287.82 920.444 2278.94 909.917L2265.94 917.348Z" fill="#1F547E"/>
<path d="M2384.21 939.02C2382.97 937.162 2382.35 947.689 2382.35 948.308L2400.93 974.315C2401.55 973.283 2402.78 970.971 2402.78 969.98C2402.78 968.742 2385.45 940.878 2384.21 939.02Z" fill="#D0FAFF"/>
<path d="M2358.2 954.5C2349.33 947.895 2330.09 932.209 2324.14 922.301L2309.9 981.126L2399.69 989.176L2400.31 981.126L2395.35 976.792L2402.16 974.934L2394.73 963.788L2395.35 961.312C2391.39 959.33 2385.45 946.863 2382.97 940.878L2369.35 966.884C2363.4 967.38 2356.14 958.835 2353.25 954.5H2358.2Z" fill="#2D5F90"/>
<path d="M2096.28 922.301L2093.18 923.54L2090.08 933.447C2095.86 943.767 2108.41 964.036 2112.37 962.55C2117.33 960.692 2109.9 952.643 2109.9 950.785C2109.9 948.927 2102.47 944.593 2107.42 945.831C2111.38 946.822 2110.72 944.593 2109.9 943.355C2107.63 938.814 2102.59 928.989 2100.61 926.017C2098.63 923.045 2096.89 922.301 2096.28 922.301Z" fill="#DCFDFF"/>
<path d="M2265.94 915.49L2280.8 922.921L2297.52 896.914L2331.57 880.814L2341.48 878.957C2344.58 876.48 2322.91 863.477 2321.67 862.238C2320.68 861.248 2318.36 861 2317.33 861L2331.57 857.904C2331.99 856.665 2332.94 853.569 2333.43 851.092C2333.93 848.616 2323.73 840.566 2318.57 836.851L2311.14 822.609L2330.96 825.086L2327.86 821.371L2313 799.079L2315.48 794.745C2314.86 792.061 2312.87 785.209 2309.9 779.264C2306.93 773.32 2304.95 771.834 2304.33 771.834L2302.47 785.456L2306.81 855.427L2285.75 889.483C2279.35 895.675 2266.31 908.555 2265.32 910.536C2264.33 912.518 2265.32 914.665 2265.94 915.49Z" fill="#DDF4F9"/>
<path d="M2275.85 928.494C2274.86 941.373 2246.95 968.948 2233.12 981.126L2380.49 991.033C2373.05 990.529 2339.42 955.324 2323.52 937.782C2327.98 941.745 2329.92 938.607 2330.34 936.543V927.874C2344.7 932.828 2352.83 933.241 2355.1 932.828C2330.34 904.097 2326.62 889.483 2327.86 885.768L2340.86 879.576L2336.53 878.957L2333.43 877.718C2328.97 876.728 2323.73 866.16 2321.67 861L2333.43 858.523C2329.72 854.189 2321.79 844.9 2319.81 842.424C2317.83 839.947 2318.16 830.246 2318.57 825.705L2329.1 825.086C2314.24 816.169 2310.11 803.62 2309.9 798.46L2315.48 803.413V799.079L2302.47 776.788L2291.95 803.413H2296.9C2295.41 810.349 2288.02 818.274 2284.51 821.371L2288.23 823.228L2298.14 817.036L2301.23 818.274L2290.71 833.755L2295.66 834.374V838.089L2275.85 862.238L2293.8 864.096C2291.82 871.031 2277.29 883.498 2270.27 888.864L2272.13 892.579H2287.61C2290.09 898.524 2272.96 914.045 2264.08 921.063L2275.85 928.494Z" fill="#214168"/>
<path d="M2209.59 887.626C2206.29 884.53 2198.94 877.718 2195.97 875.242L2186.06 905.583L2213.31 927.255C2217.64 928.494 2226.8 930.723 2228.79 929.732C2230.77 928.741 2221.77 921.063 2217.02 917.348L2197.83 908.679L2217.02 901.868L2209.59 887.626Z" fill="#CFF0F5"/>
<path d="M2166.87 934.066C2165.01 945.212 2135.29 965.027 2131.57 966.884L2264.08 978.03L2226.93 947.07L2244.89 942.735L2221.97 930.97C2219.91 927.049 2215.53 918.958 2214.54 917.967C2213.55 916.976 2219.09 918.38 2221.97 919.205L2208.97 906.821L2226.93 904.344L2215.78 898.152C2208.85 898.648 2201.33 886.8 2198.44 880.814C2200.92 879.328 2206.49 884.736 2208.97 887.626C2210.95 889.112 2218.47 886.181 2221.97 884.53C2212.56 884.53 2211.86 877.099 2212.69 873.384L2194.11 843.662C2180.74 873.384 2168.72 883.291 2164.39 884.53V889.483L2183.58 882.672L2181.11 889.483L2191.01 882.672C2193 886.635 2180.28 898.772 2173.68 904.344C2156.34 913.261 2144.99 927.874 2141.48 934.066C2144.95 935.552 2157.37 931.383 2163.15 929.113L2158.2 940.878L2166.87 934.066Z" fill="#224674"/>
<path d="M2042.4 932.828L2019.49 976.173L2062.84 973.076L2042.4 932.828Z" fill="#2C709D"/>
<path d="M2082.03 946.451L2067.79 966.265L2110.52 961.312L2103.71 947.689C2103.21 946.698 2108.04 948.927 2110.52 950.166L2109.28 944.593C2103.83 939.144 2096.28 926.636 2093.18 921.063L2076.46 947.689L2082.03 946.451Z" fill="#2C709D"/>
<path d="M1573.04 864.715C1572.43 863.477 1564.38 849.854 1561.9 846.139L1548.9 881.434C1543.53 886.181 1531.81 896.79 1527.84 901.248C1523.88 905.707 1534.45 920.031 1540.23 926.636L1607.1 961.931L1592.24 940.258L1599.67 942.116L1595.34 930.97L1574.9 911.156C1578.41 913.426 1586.05 917.348 1588.52 914.871C1591 912.394 1587.91 905.996 1586.05 903.106L1556.33 871.526H1573.04C1573.25 869.669 1573.54 865.706 1573.04 864.715Z" fill="#B7EBF9"/>
<path d="M1597.19 963.169C1596.57 973.696 1623.82 986.699 1626.3 989.795L1490.69 950.785L1519.79 923.54L1509.27 921.063C1514.72 922.054 1539.61 901.248 1551.37 890.722L1545.8 884.53L1524.55 891.815C1524.38 891.91 1524.24 891.96 1524.13 891.96L1524.55 891.815C1527.32 890.242 1537.22 876.251 1542.08 869.05C1538.37 870.288 1530.81 872.765 1530.32 872.765C1529.82 872.765 1540.85 854.189 1546.42 844.9L1538.37 845.52L1556.95 807.129L1569.33 833.135H1564.99L1571.81 849.235H1563.76C1563.76 855.675 1572.84 870.082 1577.38 876.48L1568.09 874.003L1578.62 895.056L1560.66 879.576H1558.8C1558.31 890.474 1580.06 906.821 1591 913.633L1594.1 927.255L1581.09 917.348C1580.6 920.815 1597.4 938.607 1605.86 947.07L1584.19 937.782C1584.69 942.735 1600.91 956.771 1608.96 963.169H1597.19Z" fill="#285D89"/>
<path d="M1446.11 891.96C1452.51 905.996 1465.43 934.686 1465.92 937.162L1379.85 916.109L1396.57 885.768H1379.85L1393.47 860.381H1386.66V857.904C1394.59 853.941 1404.41 836.438 1408.34 828.182L1397.81 829.42L1397.19 828.182C1398.18 827.686 1408.75 804.445 1413.91 792.887L1406.48 792.268C1407.47 792.268 1417.62 772.04 1422.58 761.927C1422.08 764.899 1431.87 783.392 1436.82 792.268H1430.01C1427.53 795.735 1438.47 813.114 1444.25 821.37L1433.1 821.99L1446.11 844.281L1435.58 841.185L1451.68 869.05L1443.01 867.192L1460.97 891.96H1446.11Z" fill="#275682"/>
<path d="M1377.37 877.718C1368.91 875.448 1351.86 870.907 1351.37 870.907L1321.03 858.523L1290.69 752.019L1270.87 730.347L1282.64 700.625L1306.17 727.251C1311.12 730.553 1322.64 737.406 1329.08 738.397C1335.52 739.387 1337.54 747.891 1337.75 752.019L1309.26 738.397L1312.98 759.45C1316.9 758.211 1325.24 756.106 1327.22 757.592C1329.7 759.45 1341.46 765.023 1349.51 774.93C1355.95 782.856 1350.54 784.837 1347.03 784.837L1309.88 762.546L1321.03 802.794C1329.08 807.748 1346.91 819.637 1353.84 827.563C1360.78 835.488 1350.96 836.644 1345.18 836.231L1327.84 834.374L1357.56 850.473C1361.89 854.395 1371.31 863.105 1374.28 866.573C1377.25 870.04 1377.58 875.448 1377.37 877.718Z" fill="#C6F1FD"/>
<path d="M1375.52 908.679C1323.5 893.405 1218.98 862.857 1217 862.857L1227.51 850.106L1202 845.5L1242.52 831.893L1249.26 823.713L1231.5 819V813L1269.63 799L1251.68 783.599C1251.88 783.392 1253.66 781.741 1259.11 776.788C1264.56 771.834 1274.17 756.56 1278.3 749.542V745.827L1273.97 746.446L1260.34 758.211L1255.39 756.973L1259.73 739.635C1274.09 726.755 1282.64 713.215 1285.11 708.055L1280.78 707.436L1279.54 710.532L1269.63 709.294V705.579C1278.05 696.167 1283.87 681.017 1285.73 674.618L1275.82 677.095L1293.78 646.135L1320.41 680.191L1316.07 681.429L1306.77 676.778C1306.78 676.882 1306.78 676.988 1306.79 677.095C1307.28 687.993 1321.44 707.643 1328.46 716.105L1314.22 717.344L1338.36 752.638L1327.84 755.734L1316.69 745.208L1312.98 748.923V752.019C1323.38 765.889 1341.67 780.503 1349.51 786.076L1332.17 786.695L1318.55 773.072C1316.07 777.531 1346.41 810.431 1361.89 826.324V829.42L1354.46 830.659C1349.51 828.182 1331.76 815.178 1323.5 808.986C1324.12 819.513 1339.6 830.659 1342.08 832.516C1344.06 834.002 1358.18 849.648 1364.99 857.285C1358.06 851.836 1346.83 845.932 1342.08 843.662C1340.22 852.331 1354.46 861.619 1355.08 862.238C1355.58 862.734 1370.98 873.59 1378.61 878.957H1371.8L1391.62 901.868L1356.32 884.53L1375.52 908.679Z" fill="#25426C"/>
<path d="M1257.5 873L1260.34 946.451V980.507L1712.37 1088.25L1746.42 1029.42C1682.64 1007.34 1538.24 957.349 1470.87 934.066C1403.51 910.784 1299.61 883.527 1257.5 873Z" fill="#CEF0E8"/>
<path d="M1447.96 985.461C1392.98 970.104 1298.3 929.637 1259.5 922L1262.82 1073.39L1638.06 1127.88L1679.55 1061.62C1625.26 1042.63 1502.95 1000.82 1447.96 985.461Z" fill="#5CB7D4"/>
<path d="M1698.74 1108.06L1244.5 1008L1260.96 1059.77L1361.89 1091.35L1698.74 1108.06Z" fill="#FCFCF0"/>
<path d="M2527.24 1010.85C2101.85 922.921 2039.93 965.027 1842.4 1005.89L2534.06 1153.27V1010.85H2527.24Z" fill="#FCFCF0"/>
<path d="M2000.3 982.984C1908.16 996.359 1826.51 1013.74 1797.2 1020.76V1083.91L2532.2 1134.69V1043.05L2483.9 1026.33C2253.55 961.931 2115.47 966.265 2000.3 982.984Z" fill="#D9F1EA"/>
<path d="M1813.3 1012.09C1777.8 1020.14 1678.31 1045.28 1564.38 1081.44L1649.83 1120.45L2299.38 1062.86C2281.05 1054.94 2253.76 1045.94 2242.41 1042.43C2207.11 1032.31 2115.84 1008.99 2033.12 996.606C1950.39 984.222 1852.1 1001.77 1813.3 1012.09Z" fill="#A9E0E5"/>
<path d="M1709.27 1091.35C1654.78 1109.18 1613.09 1130.15 1599.05 1138.41L2177.39 1243.67L2332.19 1102.49C2292.98 1090.52 2197.45 1046.02 2109.28 1038.09C2021.1 1030.17 1932.6 1034.79 1914.85 1038.09C1860.36 1042.22 1763.76 1073.51 1709.27 1091.35Z" fill="#69C4D9"/>
<path d="M2095.04 1085.77C2000.42 1105.59 1898.75 1144.8 1859.74 1161.93V1214.57L2530.96 1274.01L2529.5 1033.76C2509.69 1035.2 2453.06 1025.83 2379.25 1033.76C2286.99 1043.67 2213.31 1061 2095.04 1085.77Z" fill="#FDFFF5"/>
<path d="M2126 1087.01C2023.46 1107.32 1907.42 1146.66 1862.21 1163.79V1217.66L2530.34 1275.87V1025.71C2511.52 1027.2 2444.48 1035.41 2413.31 1039.33C2296.28 1056.05 2254.17 1061.62 2126 1087.01Z" fill="#D2EFEA"/>
<path d="M2047.98 1162.55L1932.19 1208.99L2530.96 1268.44V1043.05L2369.97 1078.96L2047.98 1162.55Z" fill="#91D7E3"/>
<path d="M2157.58 1163.17C2089.26 1186.7 1950.64 1234.01 1942.71 1235L2530.96 1271.53V1063.48L2157.58 1163.17Z" fill="#66C0D8"/>
<path d="M2420.94 1144.6L2104.94 1233.76V1259.15L2530.96 1275.25V1114.26L2420.94 1144.6Z" fill="#3FA6C9"/>
<path d="M1482.64 1059.77C1482.64 1059.77 1267 1013 1253 1019.5C1239 1026 1262.82 1200.94 1262.82 1200.94L2245.5 1255.44L2082.03 1210.85L1745.8 1115.49L1482.64 1059.77Z" fill="#FDFFF5"/>
<path d="M1618.33 1114.47L1272 1062V1181.14L2219.49 1283L2233 1255.22L2040.8 1208.92L1826.49 1158.92L1618.33 1114.47Z" fill="#B1E0E6"/>
<path d="M1261.58 1114.26V1161.07V1312.41L2541.38 1384.23L2533.35 1261.75C2651.32 1259.82 2814.63 1257.13 2524.08 1261.75C2160.9 1267.52 1831.69 1217.5 1682.21 1188.64C1562.63 1165.56 1351.97 1129.43 1261.58 1114.26Z" fill="#58BED7"/>
<path d="M1554.32 1225.96L1261.58 1171.22V1397.85H2534.67L2530.5 1279L2066.06 1275.4C1894.35 1274.06 1723.1 1257.52 1554.32 1225.96Z" fill="#2A6D9D"/>
<path d="M1801.53 1257.29L1264.06 1171.22V1207L1654.78 1265.34L1801.53 1257.29Z" fill="#56B5D1"/>
<path d="M2523 922.5L2550.5 921.5L2629 934.5L2634.5 964.5L2528.5 985L2523 922.5Z" fill="#92D8E2"/>
<path d="M2614.46 629.082L2574.83 611.125L2595.88 648.896L2614.46 629.082Z" fill="#C0E8E7"/>
<path d="M2633.5 646.5C2646.38 646.5 2644.88 694.605 2645.5 688L2650 738L2528 843V693.5L2527 620.5C2548.5 585 2592.14 558.136 2594.33 552.5C2597.83 543.5 2630.5 640 2633.5 646.5Z" fill="#2E98C2"/>
<path d="M2637.99 538.677L2613.84 611.744L2677 644.562L2637.99 538.677Z" fill="#F6FEF1"/>
<path d="M2614.46 609.267L2633.66 590.691L2647.28 674.284L2680 692.5L2674 714.5C2669 701.5 2599.83 708.986 2599 703L2595 674.284L2614.46 609.267Z" fill="#8FD8E9"/>
<path d="M2740.16 582.022L2728.4 590.691L2722.82 613.601L2742.64 611.125L2740.16 582.022Z" fill="#F8FBF2"/>
<path d="M2728.4 590.691L2663.38 637.131L2678.86 684.191L2756.26 663.138L2770.5 560.969L2739.54 582.641L2734.59 606.171L2728.4 590.691Z" fill="#D8EFE7"/>
<path d="M2633.66 590.691L2636.75 651.992L2633.66 678.618L2644.18 707.721L2662.76 628.462L2644.18 594.406C2640.72 584.994 2635.72 588.007 2633.66 590.691Z" fill="#9AD9E8"/>
<path d="M2626.85 674.284L2607.65 705.244L2659.66 718.867L2694.96 676.761L2657.81 619.174L2642.33 686.668L2636.13 628.462L2626.85 674.284Z" fill="#73D7E7"/>
<path d="M2669.57 689.764H2613.22L2610.75 707.102C2627.67 708.753 2662.26 712.055 2665.24 712.055C2668.21 712.055 2669.36 697.194 2669.57 689.764Z" fill="#A0E2F0"/>
<path d="M2836.14 674.903L2909.82 745.493L2922.83 804.937H2807.03L2711.06 726.297L2713.53 646.419L2742.64 683.572L2759.97 718.248L2719.11 624.747L2721.58 623.509L2735.83 643.323L2750.69 627.843L2763.69 570.257L2767.41 561.588L2771.74 559.73L2820.66 655.708L2836.14 674.903Z" fill="#FCFEF1"/>
<path d="M2748.83 708.34C2737.09 691.252 2713.53 656.628 2712.92 654.485L2737.68 746.731L2771.74 751.066L2748.83 708.34Z" fill="#75D1EA"/>
<path d="M2822.51 773.357C2830.77 766.546 2847.41 752.923 2847.9 752.923L2943.26 840.851L2988.46 814.225L2901.15 737.443L2914.16 788.218H2909.82L2877.01 737.443L2881.96 767.165L2842.95 682.333L2824.99 665.615L2833.04 716.39L2782.89 639.608L2787.84 704.625L2777.93 678.618V707.721L2774.84 711.436L2769.88 696.575L2767.41 710.198L2808.27 773.357H2822.51Z" fill="#D1EFED"/>
<path d="M2764.93 716.39C2749.86 686.461 2719.6 626.233 2719.11 624.747L2688.77 654.469L2715.39 685.429L2713.53 651.992L2742.02 685.429L2759.36 721.344L2764.93 716.39Z" fill="#D1EFED"/>
<path d="M2816.94 780.788L2845.43 753.542L2862.76 765.307L2873.29 804.937L2811.37 784.503L2816.94 780.788Z" fill="#68C4DD"/>
<path d="M2981.03 827.847L2935.21 791.933L2933.97 818.559L2981.03 827.847Z" fill="#EFFDFF"/>
<path d="M2966.79 847.662L3014.47 796.268L3040.48 843.328L2966.79 847.662Z" fill="#DDF4EC"/>
<path d="M3012.61 798.125C3014.26 794.41 3017.81 786.98 3018.8 786.98L3111.07 886.672L3063.39 910.821L3047.91 899.056L3012.61 798.125Z" fill="#FAFCEF"/>
<path d="M3025 830.324H3018.18L2994.04 914.537L3044.81 936.209L3046.67 892.864L3025 830.324Z" fill="#98DCE7"/>
<path d="M3096.2 834.659L3115.4 874.288L3140.79 924.444L3240.48 904.01L3167.41 847.662L3135.83 868.715L3100.54 834.659H3096.2Z" fill="#EBF8EE"/>
<path d="M3526.55 749.208L3496.21 778.93C3501.79 780.788 3513.43 784.379 3515.41 783.884C3517.39 783.388 3531.92 768.403 3538.94 760.973C3536.67 757.464 3532 750.323 3531.51 749.827C3531.01 749.332 3528 749.208 3526.55 749.208Z" fill="#EAF8F8"/>
<path d="M3136.45 868.715C3146.86 872.678 3187.02 919.077 3205.8 941.782L2577.5 928L2545.5 869L2557.17 655.796C2555.48 654.412 2554.66 653.499 2555 653.231L2557.45 650.729L2558.73 627.224L2565.96 642.017L2609.49 597.502L2712.3 673.665L2711.06 653.231L2766.17 746.731L2740.16 695.337L2759.97 718.248L2761.21 708.959C2761.71 714.904 2791.97 756.019 2807.03 775.834H2823.13L2815.08 784.503L2872.05 802.46C2856.2 785.122 2847.28 763.037 2844.81 754.162L2855.95 738.062C2860.41 766.298 2880.51 782.026 2890.01 786.36C2903.88 796.763 2926.34 793.172 2935.83 790.076C2936.04 790.695 2937.19 793.172 2940.16 798.125C2943.14 803.079 2952.96 812.986 2957.5 817.321C2964.44 823.265 2996.31 808.652 3011.37 800.602C3006.42 813.482 2985.37 833.627 2975.46 842.089C2983.92 838.58 3002.95 830.943 3011.37 828.467C3019.79 825.99 3020.66 828.673 3020.04 830.324C3011.13 850.139 3009.72 874.494 3010.14 884.195L3043.57 935.59L3078.87 879.861C3084.44 872.43 3096.45 856.579 3099.92 852.616C3103.39 848.653 3107.97 850.964 3109.83 852.616C3114.37 856.331 3126.05 864.752 3136.45 868.715Z" fill="#2E98C2"/>
<path d="M3042.33 879.861L3040.48 943.02L3085.06 941.782L3052.86 904.629L3042.33 879.861Z" fill="#66C5E1"/>
<path d="M3052.24 904.629L3080.11 937.447C3159.36 974.6 3186.2 935.177 3189.71 910.821C3183.27 906.363 3170.92 879.242 3165.56 866.238L3156.89 875.526L3118.5 884.815L3088.16 869.954L3101.78 852.616H3110.45L3095.59 834.659L3088.16 847.662L3080.11 845.804L3044.19 815.463C3045.68 834.287 3068.75 862.11 3080.11 873.669L3095.59 902.772H3093.11L3059.67 863.761L3049.76 861.285L3052.24 904.629Z" fill="#97D9E5"/>
<path d="M2810.75 931.874C2703.75 905.62 2620.45 868.921 2592.17 853.854L2594.03 927.54L2781.03 959.739L2810.75 931.874Z" fill="#3192BD"/>
<path d="M3094.35 936.828L2934.59 935.59L2932.11 941.782L3078.87 961.596L3094.35 936.828Z" fill="#6DC2D7"/>
<path d="M3068.96 943.639C3025.41 943.227 2937.44 942.029 2933.97 940.543L2932.11 957.262L3011.99 973.361L3068.96 943.639Z" fill="#48AED4"/>
<path d="M3233.05 898.437C3178.56 924.691 3019.63 947.767 2946.98 956.023L3073.91 1032.81L3292.49 947.355L3233.05 898.437Z" fill="#5EC0DB"/>
<path d="M3301.78 954.166L3415.1 840.232L3418.19 793.172L3350.08 833.42C3320.56 850.552 3261.29 884.814 3260.29 884.814C3259.3 884.814 3240.07 893.896 3230.57 898.437L3301.78 954.166Z" fill="#8ED6E2"/>
<path d="M3464.63 754.781C3406.18 801.841 3284.24 870.16 3230.57 898.437C3268.72 885.557 3370.72 824.545 3416.95 795.648C3399.12 826.857 3374.44 855.712 3364.32 866.238L3464.63 825.37L3467.73 756.638L3464.63 754.781Z" fill="#F6FBF5"/>
<path d="M3459.68 799.364L3425 823.513L3348.84 922.586L3625.01 954.166L3705.51 736.205C3678.26 712.881 3623.03 665.862 3620.05 664.376C3617.08 662.89 3574.23 718.247 3553.18 746.112L3530.89 751.685L3514.17 771.499L3501.79 775.215L3467.11 756.019L3459.68 799.364Z" fill="#B3E5E6"/>
<path d="M3383.52 934.97C3221.53 933.98 3077.01 975.838 3025 996.891V1012.37L3345.13 1021.66L3383.52 934.97Z" fill="#4BB6D6"/>
<path d="M3363.7 863.761L3281.97 984.507L3626.87 1034.66L3595.91 803.079L3516.65 908.964L3477.64 848.281L3380.42 904.629L3428.1 820.417L3363.7 863.761Z" fill="#67C3DA"/>
<path d="M3530.89 777.072L3553.8 741.777L3583.52 705.244L3590.95 727.536L3558.13 759.734L3530.89 777.072Z" fill="#DDF7E9"/>
<path d="M3711.7 671.807L3716.03 679.237L3701.79 841.47L3586.62 824.132L3667.73 723.82L3661.54 712.055L3620.67 668.092L3625.01 748.589L3589.09 790.695L3599 756.638L3589.09 778.311L3595.29 725.678L3565.56 753.542L3583.52 706.483L3553.8 741.777L3569.9 716.39L3620.67 660.661L3690.03 696.575L3711.7 671.807Z" fill="#FCFEF0"/>
<path d="M3804.58 611.744L3744.52 703.387L3804.58 708.959V611.744Z" fill="#E7FFFF"/>
<path d="M3500.55 935.59L3712.94 675.522C3722.43 683.365 3743.52 699.919 3751.95 703.387L3803.96 619.174V944.258L3500.55 935.59Z" fill="#2E98C2"/>
<path d="M3667.73 730.632L3670.83 726.916L3698.69 763.45L3667.73 730.632Z" fill="#55BDD6"/>
<path d="M3716.65 759.734L3694.98 738.681L3722.22 768.403L3716.65 759.734Z" fill="#55BDD6"/>
<path d="M3714.79 770.88L3709.84 769.642L3727.18 787.599L3714.79 770.88Z" fill="#55BDD6"/>
<path d="M3737.09 694.098L3712.94 675.522L3708.6 684.81L3714.17 708.34L3719.75 718.867L3756.28 757.258L3737.7 731.87L3723.46 712.055L3749.47 730.632L3733.37 696.575L3737.09 694.098Z" fill="#55BDD6"/>
<path d="M2776.69 921.967L2777.31 929.397L2810.75 930.636L2803.94 910.821L2776.69 921.967Z" fill="#21618D"/>
<path d="M3644.2 854.473C3642.76 852.822 3639.5 848.777 3638.01 845.804L3623.77 850.758L3644.82 861.285L3644.2 854.473Z" fill="#84D3FC"/>
<path d="M2774.22 907.106L2771.12 908.964L2772.98 930.017L2781.65 928.159L2774.22 907.106Z" fill="#8FD7FF"/>
<path d="M2771.74 906.487C2768.02 913.917 2760.59 928.902 2760.59 929.397L2781.03 930.017L2771.74 906.487Z" fill="#2A608E"/>
<path d="M3769.9 836.516L3745.13 884.195L3805.82 879.861L3808.91 804.937L3790.34 767.784L3761.23 836.516H3769.9Z" fill="#27699B"/>
<path d="M3699.31 783.884L3683.21 830.324L3691.88 825.99C3686.31 844.566 3674.92 881.842 3673.93 882.338C3672.94 882.833 3730.48 891.213 3759.38 895.341C3748.85 879.861 3727.18 848.034 3724.7 844.566C3722.22 841.098 3729.04 841.47 3732.75 842.089L3714.79 817.321H3720.99L3699.31 783.884Z" fill="#2C7AA8"/>
<path d="M3659.06 873.049L3642.97 889.768L3639.25 897.199L3716.65 911.44L3692.5 858.188H3698.07L3678.88 803.079L3676.4 804.937C3671.45 837.135 3655.76 861.697 3648.54 869.953L3659.06 873.049Z" fill="#25699A"/>
<path d="M3618.2 832.801L3596.52 853.854L3589.71 856.331L3585.38 923.825C3615.1 919.077 3672.19 907.849 3662.78 900.914C3653.37 893.979 3644.82 875.32 3641.73 866.857H3649.78L3636.77 848.281H3641.73L3623.15 814.225L3613.86 832.801H3618.2Z" fill="#256895"/>
<path d="M2898.68 877.384C2896.2 887.291 2879.48 922.793 2871.43 939.305L2940.78 959.739C2949.25 960.358 2963.82 959.491 2954.41 951.07C2944.99 942.648 2931.91 913.298 2926.54 899.675H2932.73L2923.45 881.099H2926.54L2916.63 866.857H2920.97L2907.97 838.374L2894.34 877.384H2898.68Z" fill="#3597BE"/>
<path d="M3158.74 1004.32C2987.35 939.924 2789.7 923.825 2712.3 923.825L2686.29 986.365L3130.88 1106.49L3158.74 1004.32Z" fill="#77C8DD"/>
<path d="M3169.89 1014.85C2988.59 962.339 2857.81 966.137 2815.08 974.6L3107.35 1066.86L3169.89 1014.85Z" fill="#3DAACB"/>
<path d="M3803.96 863.762C3678.14 886.548 3616.13 909.996 3600.86 918.871V942.401L3803.96 891.007V863.762Z" fill="#EAFAF0"/>
<path d="M3804.58 884.195L3577.33 942.401L3586 973.981L3804.58 932.494V884.195Z" fill="#B9E5E6"/>
<path d="M3805.2 924.444L3586.62 967.788L3648.54 1012.37L3805.2 983.269V924.444Z" fill="#92D8E2"/>
<path d="M3731.55 1007.43C3731.53 1007.42 3731.52 1007.42 3731.51 1007.42L3731.55 1007.43C3733.59 1007.76 3781.4 995.615 3805.2 989.461V1024.76L3731.55 1007.43Z" fill="#59C1DE"/>
<path d="M3805.2 971.504C3767.22 980.379 3690.77 998.13 3688.79 998.13L3731.51 1016.09L3805.2 995.653V971.504Z" fill="#6FC7DD"/>
<path d="M3503.02 892.245C3501.79 902.152 3481.97 906.487 3478.26 906.487L3465.25 973.361L3553.18 977.076L3567.42 869.334V856.331L3550.08 860.046L3558.75 848.9V839.612L3562.47 842.708L3567.42 835.897C3559.5 836.392 3554.63 829.911 3553.18 826.609C3556.48 826.815 3562.72 827.104 3561.23 826.609C3559.37 825.99 3548.23 799.364 3548.23 800.602C3548.23 801.593 3538.73 816.702 3533.99 824.132H3536.46L3527.79 837.755H3536.46L3522.84 856.331L3515.41 842.708C3514.91 844.194 3504.88 859.427 3499.93 866.857L3506.74 868.096L3496.83 884.814L3503.02 892.245Z" fill="#286592"/>
<path d="M3526.55 862.523C3527.79 861.285 3530.39 858.808 3530.89 858.808V860.665L3527.17 867.477L3529.65 873.669L3525.32 868.096L3526.55 862.523Z" fill="#64B1DD"/>
<path d="M3532.13 884.814C3539.76 894.722 3555.53 915.156 3557.51 917.632L3582.9 919.49C3580.01 902.565 3573.12 869.582 3568.66 873.05C3564.2 876.517 3542.45 882.338 3532.13 884.814Z" fill="#3285B1"/>
<path d="M3538.94 921.348C3530.06 933.938 3511.69 960.482 3509.22 965.931L3533.37 984.507C3548.43 973.568 3578.57 951.07 3578.57 948.593C3578.57 946.116 3560.82 924.444 3551.94 913.917L3538.94 921.348Z" fill="#1F547E"/>
<path d="M3657.21 943.02C3655.97 941.162 3655.35 951.689 3655.35 952.308L3673.93 978.315C3674.55 977.283 3675.78 974.971 3675.78 973.98C3675.78 972.742 3658.45 944.878 3657.21 943.02Z" fill="#D0FAFF"/>
<path d="M3631.2 958.5C3622.33 951.895 3603.09 936.209 3597.14 926.301L3582.9 985.126L3672.69 993.176L3673.31 985.126L3668.35 980.792L3675.16 978.934L3667.73 967.788L3668.35 965.312C3664.39 963.33 3658.45 950.863 3655.97 944.878L3642.35 970.884C3636.4 971.38 3629.14 962.835 3626.25 958.5H3631.2Z" fill="#2D5F90"/>
<path d="M3369.28 926.301L3366.18 927.54L3363.08 937.447C3368.86 947.767 3381.41 968.036 3385.37 966.55C3390.33 964.692 3382.9 956.643 3382.9 954.785C3382.9 952.927 3375.47 948.593 3380.42 949.831C3384.38 950.822 3383.72 948.593 3382.9 947.355C3380.63 942.814 3375.59 932.989 3373.61 930.017C3371.63 927.045 3369.89 926.301 3369.28 926.301Z" fill="#DCFDFF"/>
<path d="M3538.94 919.49L3553.8 926.921L3570.52 900.914L3604.57 884.814L3614.48 882.957C3617.58 880.48 3595.91 867.477 3594.67 866.238C3593.68 865.248 3591.36 865 3590.33 865L3604.57 861.904C3604.99 860.665 3605.94 857.569 3606.43 855.092C3606.93 852.616 3596.73 844.566 3591.57 840.851L3584.14 826.609L3603.96 829.086L3600.86 825.371L3586 803.079L3588.48 798.745C3587.86 796.061 3585.87 789.209 3582.9 783.264C3579.93 777.32 3577.95 775.834 3577.33 775.834L3575.47 789.456L3579.81 859.427L3558.75 893.483C3552.35 899.675 3539.31 912.555 3538.32 914.536C3537.33 916.518 3538.32 918.665 3538.94 919.49Z" fill="#DDF4F9"/>
<path d="M3548.85 932.494C3547.86 945.373 3519.95 972.948 3506.12 985.126L3653.49 995.033C3646.05 994.529 3612.42 959.324 3596.52 941.782C3600.98 945.745 3602.92 942.607 3603.34 940.543V931.874C3617.7 936.828 3625.83 937.241 3628.1 936.828C3603.34 908.097 3599.62 893.483 3600.86 889.768L3613.86 883.576L3609.53 882.957L3606.43 881.718C3601.97 880.728 3596.73 870.16 3594.67 865L3606.43 862.523C3602.72 858.189 3594.79 848.9 3592.81 846.424C3590.83 843.947 3591.16 834.246 3591.57 829.705L3602.1 829.086C3587.24 820.169 3583.11 807.62 3582.9 802.46L3588.48 807.413V803.079L3575.47 780.788L3564.95 807.413H3569.9C3568.41 814.349 3561.02 822.274 3557.51 825.371L3561.23 827.228L3571.14 821.036L3574.23 822.274L3563.71 837.755L3568.66 838.374V842.089L3548.85 866.238L3566.8 868.096C3564.82 875.031 3550.29 887.498 3543.27 892.864L3545.13 896.579H3560.61C3563.09 902.524 3545.96 918.045 3537.08 925.063L3548.85 932.494Z" fill="#214168"/>
<path d="M3482.59 891.626C3479.29 888.53 3471.94 881.718 3468.97 879.242L3459.06 909.583L3486.31 931.255C3490.64 932.494 3499.8 934.723 3501.79 933.732C3503.77 932.741 3494.77 925.063 3490.02 921.348L3470.83 912.679L3490.02 905.868L3482.59 891.626Z" fill="#CFF0F5"/>
<path d="M3439.87 938.066C3438.01 949.212 3408.29 969.027 3404.57 970.884L3537.08 982.03L3499.93 951.07L3517.89 946.735L3494.97 934.97C3492.91 931.049 3488.53 922.958 3487.54 921.967C3486.55 920.976 3492.09 922.38 3494.97 923.205L3481.97 910.821L3499.93 908.344L3488.78 902.152C3481.85 902.648 3474.33 890.8 3471.44 884.814C3473.92 883.328 3479.49 888.736 3481.97 891.626C3483.95 893.112 3491.47 890.181 3494.97 888.53C3485.56 888.53 3484.86 881.099 3485.69 877.384L3467.11 847.662C3453.74 877.384 3441.72 887.291 3437.39 888.53V893.483L3456.58 886.672L3454.11 893.483L3464.01 886.672C3466 890.635 3453.28 902.772 3446.68 908.344C3429.34 917.261 3417.99 931.874 3414.48 938.066C3417.95 939.552 3430.37 935.383 3436.15 933.113L3431.2 944.878L3439.87 938.066Z" fill="#224674"/>
<path d="M3315.4 936.828L3292.49 980.173L3335.84 977.076L3315.4 936.828Z" fill="#2C709D"/>
<path d="M3355.03 950.451L3340.79 970.265L3383.52 965.312L3376.71 951.689C3376.21 950.698 3381.04 952.927 3383.52 954.166L3382.28 948.593C3376.83 943.144 3369.28 930.636 3366.18 925.063L3349.46 951.689L3355.03 950.451Z" fill="#2C709D"/>
<path d="M2846.04 868.715C2845.43 867.477 2837.38 853.854 2834.9 850.139L2821.9 885.434C2816.53 890.181 2804.81 900.79 2800.84 905.248C2796.88 909.707 2807.45 924.031 2813.23 930.636L2880.1 965.931L2865.24 944.258L2872.67 946.116L2868.34 934.97L2847.9 915.156C2851.41 917.426 2859.05 921.348 2861.52 918.871C2864 916.394 2860.91 909.996 2859.05 907.106L2829.33 875.526H2846.04C2846.25 873.669 2846.54 869.706 2846.04 868.715Z" fill="#B7EBF9"/>
<path d="M2870.19 967.169C2869.57 977.696 2896.82 990.699 2899.3 993.795L2763.69 954.785L2792.79 927.54L2782.27 925.063C2787.72 926.054 2812.61 905.248 2824.37 894.722L2818.8 888.53L2797.55 895.815C2797.38 895.91 2797.24 895.96 2797.13 895.96L2797.55 895.815C2800.32 894.242 2810.22 880.251 2815.08 873.05C2811.37 874.288 2803.81 876.765 2803.32 876.765C2802.82 876.765 2813.85 858.189 2819.42 848.9L2811.37 849.52L2829.95 811.129L2842.33 837.135H2837.99L2844.81 853.235H2836.76C2836.76 859.675 2845.84 874.082 2850.38 880.48L2841.09 878.003L2851.62 899.056L2833.66 883.576H2831.8C2831.31 894.474 2853.06 910.821 2864 917.633L2867.1 931.255L2854.09 921.348C2853.6 924.815 2870.4 942.607 2878.86 951.07L2857.19 941.782C2857.69 946.735 2873.91 960.771 2881.96 967.169H2870.19Z" fill="#285D89"/>
<path d="M2719.11 895.96C2725.51 909.996 2738.43 938.686 2738.92 941.162L2652.85 920.109L2669.57 889.768H2652.85L2666.47 864.381H2659.66V861.904C2667.59 857.941 2677.41 840.438 2681.34 832.182L2670.81 833.42L2670.19 832.182C2671.18 831.686 2681.75 808.445 2686.91 796.887L2679.48 796.268C2680.47 796.268 2690.62 776.04 2695.58 765.927C2695.08 768.899 2704.87 787.392 2709.82 796.268H2703.01C2700.53 799.735 2711.47 817.114 2717.25 825.37L2706.1 825.99L2719.11 848.281L2708.58 845.185L2724.68 873.05L2716.01 871.192L2733.97 895.96H2719.11Z" fill="#275682"/>
<path d="M2650.37 881.718C2641.91 879.448 2624.86 874.907 2624.37 874.907L2594.03 862.523L2563.69 756.019L2543.87 734.347L2555.64 704.625L2579.17 731.251C2584.12 734.553 2595.64 741.406 2602.08 742.397C2608.52 743.387 2610.54 751.891 2610.75 756.019L2582.26 742.397L2585.98 763.45C2589.9 762.211 2598.24 760.106 2600.22 761.592C2602.7 763.45 2614.46 769.023 2622.51 778.93C2628.95 786.856 2623.54 788.837 2620.03 788.837L2582.88 766.546L2594.03 806.794C2602.08 811.748 2619.91 823.637 2626.84 831.563C2633.78 839.488 2623.96 840.644 2618.18 840.231L2600.84 838.374L2630.56 854.473C2634.89 858.395 2644.31 867.105 2647.28 870.573C2650.25 874.04 2650.58 879.448 2650.37 881.718Z" fill="#C6F1FD"/>
<path d="M2648.52 912.679C2596.5 897.405 2491.98 866.857 2490 866.857L2500.51 854.106L2475 849.5L2515.52 835.893L2522.26 827.713L2504.5 823V817L2542.63 803L2524.68 787.599C2524.88 787.392 2526.66 785.741 2532.11 780.788C2537.56 775.834 2547.17 760.56 2551.3 753.542V749.827L2546.97 750.446L2533.34 762.211L2528.39 760.973L2532.73 743.635C2547.09 730.755 2555.64 717.215 2558.11 712.055L2553.78 711.436L2552.54 714.532L2542.63 713.294V709.579C2551.05 700.167 2556.87 685.017 2558.73 678.618L2548.82 681.095L2566.78 650.135L2593.41 684.191L2589.07 685.429L2579.77 680.778C2579.78 680.882 2579.78 680.988 2579.79 681.095C2580.28 691.993 2594.44 711.643 2601.46 720.105L2587.22 721.344L2611.36 756.638L2600.84 759.734L2589.69 749.208L2585.98 752.923V756.019C2596.38 769.889 2614.67 784.503 2622.51 790.076L2605.17 790.695L2591.55 777.072C2589.07 781.531 2619.41 814.431 2634.89 830.324V833.42L2627.46 834.659C2622.51 832.182 2604.76 819.178 2596.5 812.986C2597.12 823.513 2612.6 834.659 2615.08 836.516C2617.06 838.002 2631.18 853.648 2637.99 861.285C2631.06 855.836 2619.83 849.932 2615.08 847.662C2613.22 856.331 2627.46 865.619 2628.08 866.238C2628.58 866.734 2643.98 877.59 2651.61 882.957H2644.8L2664.62 905.868L2629.32 888.53L2648.52 912.679Z" fill="#25426C"/>
<path d="M2513.5 886C2406 918 2441.5 936.5 2441.5 936.5C2441.5 936.5 2481 924.5 2540 926.5C2599 928.5 2984.32 1092 2984.32 1092L3019 1034.51C2954.05 1012.92 2807 964.063 2738.39 941.308C2669.79 918.553 2621 854 2513.5 886Z" fill="#B9E5E6"/>
<path d="M2524 969.5C2560.5 960.5 2628.51 942.144 2683.5 957.5C2738.49 972.856 2898.26 1046.63 2952.55 1065.62L2911.06 1131.88L2528.66 992.784L2526.5 992L2524 969.5Z" fill="#6FC7DD"/>
<path d="M2970 1090C2970 1090 2601 984 2532 991.5C2463 999 2532 1042.04 2532 1042.04L2632.98 1073.4L2970 1090Z" fill="#59C1DE"/>
<path d="M3800.24 1014.85C3374.85 926.921 3312.93 969.027 3115.4 1009.89L3807.06 1157.27V1014.85H3800.24Z" fill="#FCFCF0"/>
<path d="M3273.3 986.984C3181.16 1000.36 3099.51 1017.74 3070.2 1024.76V1087.91L3805.2 1138.69V1047.05L3756.9 1030.33C3526.55 965.931 3388.47 970.265 3273.3 986.984Z" fill="#D9F1EA"/>
<path d="M3086.3 1016.09C3050.8 1024.14 2951.31 1049.28 2837.38 1085.44L2922.83 1124.45L3572.38 1066.86C3554.05 1058.94 3526.76 1049.94 3515.41 1046.43C3480.11 1036.31 3388.84 1012.99 3306.12 1000.61C3223.39 988.222 3125.1 1005.77 3086.3 1016.09Z" fill="#A9E0E5"/>
<path d="M2982.27 1095.35C2927.78 1113.18 2886.09 1134.15 2872.05 1142.41L3450.39 1247.67L3605.19 1106.49C3565.98 1094.52 3470.45 1050.02 3382.28 1042.09C3294.1 1034.17 3205.6 1038.79 3187.85 1042.09C3133.36 1046.22 3036.76 1077.51 2982.27 1095.35Z" fill="#69C4D9"/>
<path d="M3368.04 1089.77C3273.42 1109.59 3171.75 1148.8 3132.74 1165.93V1218.57L3803.96 1278.01V1023.52C3784.14 1024.96 3726.06 1029.83 3652.25 1037.76C3559.99 1047.67 3486.31 1065 3368.04 1089.77Z" fill="#FDFFF5"/>
<path d="M3399 1091.01C3296.46 1111.32 3180.42 1150.66 3135.21 1167.79V1221.66L3803.34 1279.87V1029.71C3784.52 1031.2 3717.48 1039.41 3686.31 1043.33C3569.28 1060.05 3527.17 1065.62 3399 1091.01Z" fill="#D2EFEA"/>
<path d="M3320.98 1166.55L3205.19 1212.99L3803.96 1272.44V1047.05L3642.97 1082.96L3320.98 1166.55Z" fill="#91D7E3"/>
<path d="M3430.58 1167.17C3362.26 1190.7 3223.64 1238.01 3215.71 1239L3803.96 1275.53V1067.48L3430.58 1167.17Z" fill="#66C0D8"/>
<path d="M3693.94 1148.6L3377.94 1237.76V1263.15L3803.96 1279.25V1118.26L3693.94 1148.6Z" fill="#3FA6C9"/>
<path d="M2755.64 1063.77L2499 1005L2535.82 1204.94L3518.5 1259.44L3355.03 1214.85L3018.8 1119.49L2755.64 1063.77Z" fill="#FCFCF0"/>
<path d="M2885.32 1113.78C2885.32 1113.78 2554 1004 2501 1029C2448 1054 2535.61 1182.31 2535.61 1182.31L3492.36 1287L3506 1258.45L3311.92 1210.86L3095.52 1159.46L2885.32 1113.78Z" fill="#D2EFEA"/>
<path d="M2483.5 1053.5V1178.5L2534.58 1316.41L3814.38 1388.23L3806.35 1265.75C3924.32 1263.82 4087.63 1261.13 3797.09 1265.75C3433.9 1271.52 3104.69 1221.5 2955.21 1192.64C2835.63 1169.56 2640.5 1031 2483.5 1053.5Z" fill="#91D7E3"/>
<path d="M3074.53 1261.29C3074.53 1261.29 2555.5 1045 2483 1076.5C2410.5 1108 2483 1218 2483 1218L2927.78 1269.34L3074.53 1261.29Z" fill="#66C0D8"/>
<path d="M2674.79 1170.3C2568.95 1147.4 2474.83 1130.33 2451 1136C2390 1150.5 2451 1402 2451 1402H3808V1255.92H3402.1C3157.29 1255.92 2914.05 1222.07 2674.79 1170.3Z" fill="#3FA6C9"/>
<path d="M2642 1237C2734.8 1222.2 2981 1264.5 3092.5 1287.5L3047 1347L2286 1281C2286 1280.17 2295.1 1276.7 2331.5 1269.5C2367.9 1262.3 2410.33 1261.5 2427 1262C2507.5 1262 2526 1255.5 2642 1237Z" fill="#58BED7"/>
<path d="M-21 918.5L6.5 917.5L85 930.5L90.5 960.5L-15.5 981L-21 918.5Z" fill="#92D8E2"/>
<path d="M1265 539L1179 706.5L1263 703L1265 539Z" fill="#F4FFFC"/>
<path d="M70.4606 625.082L30.8313 607.125L51.8844 644.896L70.4606 625.082Z" fill="#C0E8E7"/>
<path d="M89.4998 642.5C102.379 642.5 100.881 690.605 101.5 684L106 734L-16.0002 839V689.5L-17.0002 616.5C4.49976 581 48.1387 554.136 50.3303 548.5C53.8303 539.5 86.4998 636 89.4998 642.5Z" fill="#2E98C2"/>
<path d="M93.9907 534.677L69.8416 607.744L133.001 640.562L93.9907 534.677Z" fill="#F6FEF1"/>
<path d="M70.4607 605.267L89.6561 586.691L103.279 670.284L136 688.5L130 710.5C125 697.5 55.8254 704.986 54.9998 699L50.9998 670.284L70.4607 605.267Z" fill="#8FD8E9"/>
<path d="M196.16 578.022L184.395 586.691L178.822 609.601L198.637 607.125L196.16 578.022Z" fill="#F8FBF2"/>
<path d="M184.395 586.691L119.378 633.131L134.858 680.191L212.259 659.138L226.501 556.969L195.541 578.641L190.587 602.171L184.395 586.691Z" fill="#D8EFE7"/>
<path d="M89.6562 586.691L92.7523 647.992L89.6562 674.618L100.183 703.721L118.759 624.462L100.183 590.406C96.7152 580.994 91.7203 584.007 89.6562 586.691Z" fill="#9AD9E8"/>
<path d="M82.8449 670.284L63.6494 701.244L115.663 714.867L150.958 672.761L113.805 615.174L98.3251 682.668L92.133 624.462L82.8449 670.284Z" fill="#73D7E7"/>
<path d="M125.57 685.764H69.2222L66.7454 703.102C83.6704 704.753 118.263 708.055 121.236 708.055C124.208 708.055 125.364 693.194 125.57 685.764Z" fill="#A0E2F0"/>
<path d="M292.137 670.903L365.823 741.493L378.826 800.937H263.034L167.057 722.297L169.534 642.419L198.637 679.572L215.975 714.248L175.107 620.747L177.584 619.509L191.825 639.323L206.686 623.843L219.69 566.257L223.405 557.588L227.74 555.73L276.657 651.708L292.137 670.903Z" fill="#FCFEF1"/>
<path d="M204.829 704.34C193.094 687.252 169.531 652.628 168.919 650.485L193.683 742.731L227.74 747.066L204.829 704.34Z" fill="#75D1EA"/>
<path d="M278.515 769.357C286.771 762.546 303.407 748.923 303.902 748.923L399.26 836.851L444.462 810.225L357.154 733.443L370.157 784.218H365.823L333.005 733.443L337.959 763.165L298.948 678.333L280.991 661.615L289.041 712.39L238.885 635.608L243.839 700.625L233.932 674.618V703.721L230.836 707.436L225.882 692.575L223.405 706.198L264.273 769.357H278.515Z" fill="#D1EFED"/>
<path d="M220.928 712.39C205.861 682.461 175.602 622.233 175.107 620.747L144.766 650.469L171.392 681.429L169.534 647.992L198.018 681.429L215.355 717.344L220.928 712.39Z" fill="#D1EFED"/>
<path d="M272.942 776.788L301.425 749.542L318.763 761.307L329.29 800.937L267.369 780.503L272.942 776.788Z" fill="#68C4DD"/>
<path d="M437.032 823.847L391.211 787.933L389.972 814.559L437.032 823.847Z" fill="#EFFDFF"/>
<path d="M422.79 843.662L470.469 792.268L496.476 839.328L422.79 843.662Z" fill="#DDF4EC"/>
<path d="M468.612 794.125C470.263 790.41 473.813 782.98 474.804 782.98L567.066 882.672L519.387 906.821L503.906 895.056L468.612 794.125Z" fill="#FAFCEF"/>
<path d="M480.996 826.324H474.184L450.035 910.537L500.81 932.209L502.668 888.864L480.996 826.324Z" fill="#98DCE7"/>
<path d="M552.205 830.659L571.4 870.288L596.788 920.444L696.48 900.01L623.414 843.662L591.834 864.715L556.539 830.659H552.205Z" fill="#EBF8EE"/>
<path d="M982.554 745.208L952.213 774.93C957.786 776.788 969.427 780.379 971.408 779.884C973.39 779.388 987.921 764.403 994.938 756.973C992.668 753.464 988.003 746.323 987.508 745.827C987.012 745.332 983.999 745.208 982.554 745.208Z" fill="#EAF8F8"/>
<path d="M592.453 864.715C602.856 868.678 643.022 915.077 661.804 937.782L33.4998 924L1.49976 865L13.1682 651.796C11.4766 650.412 10.6587 649.499 10.9998 649.231L13.4455 646.729L14.7319 623.224L21.9642 638.017L65.4901 593.502L168.296 669.665L167.057 649.231L222.167 742.731L196.16 691.337L215.975 714.248L217.213 704.959C217.708 710.904 247.967 752.019 263.034 771.834H279.134L271.084 780.503L328.051 798.46C312.2 781.122 303.283 759.037 300.806 750.162L311.952 734.062C316.41 762.298 336.514 778.026 346.008 782.36C359.879 792.763 382.335 789.172 391.83 786.076C392.036 786.695 393.192 789.172 396.164 794.125C399.136 799.079 408.961 808.986 413.502 813.321C420.437 819.265 452.306 804.652 467.373 796.602C462.419 809.482 441.366 829.627 431.459 838.089C439.922 834.58 458.952 826.943 467.373 824.467C475.794 821.99 476.661 824.673 476.042 826.324C467.126 846.139 465.722 870.494 466.135 880.195L499.572 931.59L534.867 875.861C540.44 868.43 552.452 852.579 555.92 848.616C559.388 844.653 563.97 846.964 565.827 848.616C570.368 852.331 582.05 860.752 592.453 864.715Z" fill="#2E98C2"/>
<path d="M498.333 875.861L496.476 939.02L541.059 937.782L508.86 900.629L498.333 875.861Z" fill="#66C5E1"/>
<path d="M508.241 900.629L536.105 933.447C615.364 970.6 642.196 931.177 645.705 906.821C639.265 902.363 626.922 875.242 621.556 862.238L612.887 871.526L574.496 880.815L544.155 865.954L557.778 848.616H566.446L551.585 830.659L544.155 843.662L536.105 841.804L500.191 811.463C501.677 830.287 524.753 858.11 536.105 869.669L551.585 898.772H549.109L515.671 859.761L505.764 857.285L508.241 900.629Z" fill="#97D9E5"/>
<path d="M266.75 927.874C159.75 901.62 76.4464 864.921 48.1692 849.854L50.0268 923.54L237.028 955.739L266.75 927.874Z" fill="#3192BD"/>
<path d="M550.347 932.828L390.591 931.59L388.115 937.782L534.867 957.596L550.347 932.828Z" fill="#6DC2D7"/>
<path d="M524.959 939.639C481.409 939.227 393.44 938.029 389.972 936.543L388.115 953.262L467.992 969.361L524.959 939.639Z" fill="#48AED4"/>
<path d="M689.05 894.437C634.559 920.691 475.629 943.767 402.976 952.023L529.913 1028.81L748.494 943.355L689.05 894.437Z" fill="#5EC0DB"/>
<path d="M757.782 950.166L871.097 836.232L874.193 789.172L806.08 829.42C776.564 846.552 717.285 880.814 716.295 880.814C715.304 880.814 696.067 889.896 686.573 894.437L757.782 950.166Z" fill="#8ED6E2"/>
<path d="M920.633 750.781C862.18 797.841 740.237 866.16 686.573 894.437C724.716 881.557 826.72 820.545 872.954 791.648C855.121 822.857 830.435 851.712 820.322 862.238L920.633 821.37L923.729 752.638L920.633 750.781Z" fill="#F6FBF5"/>
<path d="M915.68 795.364L881.004 819.513L804.842 918.586L1081.01 950.166L1161.51 732.205C1134.26 708.881 1079.03 661.862 1076.05 660.376C1073.08 658.89 1030.23 714.247 1009.18 742.112L986.889 747.685L970.17 767.499L957.786 771.215L923.11 752.019L915.68 795.364Z" fill="#B3E5E6"/>
<path d="M839.517 930.97C677.532 929.98 533.009 971.838 480.996 992.891V1008.37L801.126 1017.66L839.517 930.97Z" fill="#4BB6D6"/>
<path d="M819.703 859.761L737.967 980.507L1082.87 1030.66L1051.91 799.079L972.647 904.964L933.637 844.281L836.421 900.629L884.1 816.417L819.703 859.761Z" fill="#67C3DA"/>
<path d="M986.889 773.072L1009.8 737.777L1039.52 701.244L1046.95 723.536L1014.13 755.734L986.889 773.072Z" fill="#DDF7E9"/>
<path d="M1167.7 667.807L1172.03 675.237L1157.79 837.47L1042.62 820.132L1123.73 719.82L1117.54 708.055L1076.67 664.092L1081.01 744.589L1045.09 786.695L1055 752.638L1045.09 774.311L1051.29 721.678L1021.56 749.542L1039.52 702.483L1009.8 737.777L1025.9 712.39L1076.67 656.661L1146.03 692.575L1167.7 667.807Z" fill="#FCFEF0"/>
<path d="M1265 538L1194 714.5L1265 705V538Z" fill="#63C5E0"/>
<path d="M956.547 931.59L1168.94 671.522C1178.43 679.365 1199.52 695.919 1207.95 699.387L1269.5 664L1259.96 940.258L956.547 931.59Z" fill="#45B3D4"/>
<path d="M1123.73 726.632L1126.83 722.916L1154.69 759.45L1123.73 726.632Z" fill="#55BDD6"/>
<path d="M1172.65 755.734L1150.98 734.681L1178.22 764.403L1172.65 755.734Z" fill="#55BDD6"/>
<path d="M1170.79 766.88L1165.84 765.642L1183.18 783.599L1170.79 766.88Z" fill="#55BDD6"/>
<path d="M1193.09 690.098L1168.94 671.522L1164.6 680.81L1170.17 704.34L1175.75 714.867L1212.28 753.258L1193.7 727.87L1179.46 708.055L1205.47 726.632L1189.37 692.575L1193.09 690.098Z" fill="#55BDD6"/>
<path d="M232.693 917.967L233.313 925.397L266.75 926.636L259.939 906.821L232.693 917.967Z" fill="#21618D"/>
<path d="M1100.2 850.473C1098.76 848.822 1095.5 844.777 1094.01 841.804L1079.77 846.758L1100.82 857.285L1100.2 850.473Z" fill="#84D3FC"/>
<path d="M230.216 903.106L227.12 904.964L228.978 926.017L237.647 924.159L230.216 903.106Z" fill="#8FD7FF"/>
<path d="M227.74 902.487C224.024 909.917 216.594 924.902 216.594 925.397L237.028 926.017L227.74 902.487Z" fill="#2A608E"/>
<path d="M1225.9 832.516L1201.13 880.195L1261.82 875.861L1264.91 800.937L1246.34 763.784L1217.23 832.516H1225.9Z" fill="#27699B"/>
<path d="M1155.31 779.884L1139.21 826.324L1147.88 821.99C1142.31 840.566 1130.92 877.842 1129.93 878.338C1128.93 878.833 1186.48 887.213 1215.38 891.341C1204.85 875.861 1183.18 844.034 1180.7 840.566C1178.22 837.098 1185.04 837.47 1188.75 838.089L1170.79 813.321H1176.99L1155.31 779.884Z" fill="#2C7AA8"/>
<path d="M1115.81 869.971L1099.72 886.689L1096 894.12L1115.81 916L1173.4 908.361L1149.25 855.11H1154.82L1135.63 800L1133.15 801.858C1128.2 834.056 1112.51 858.618 1105.29 866.874L1115.81 869.971Z" fill="#25699A"/>
<path d="M1074.2 828.801L1052.53 849.854L1045.71 852.331L1044.1 930.911C1073.82 926.163 1130.91 914.935 1121.5 908C1112.09 901.065 1100.82 871.32 1097.73 862.857H1105.78L1092.77 844.281H1097.73L1079.15 810.225L1069.86 828.801H1074.2Z" fill="#256895"/>
<path d="M354.677 873.384C352.2 883.291 335.482 918.793 327.432 935.305L396.783 955.739C405.246 956.358 419.818 955.491 410.406 947.07C400.994 938.648 387.908 909.298 382.542 895.675H388.734L379.446 877.099H382.542L372.634 862.857H376.969L363.965 834.374L350.343 873.384H354.677Z" fill="#3597BE"/>
<path d="M614.745 1000.32C443.348 935.924 245.697 919.825 168.296 919.825L142.289 982.365L586.88 1102.49L614.745 1000.32Z" fill="#77C8DD"/>
<path d="M625.89 1010.85C444.586 958.339 313.81 962.137 271.084 970.6L563.35 1062.86L625.89 1010.85Z" fill="#3DAACB"/>
<path d="M1267.5 875.5C1227 861.5 1033.33 938.401 1033.33 938.401L1042 969.981L1260.58 928.494C1260.58 928.494 1308 889.5 1267.5 875.5Z" fill="#CEF0E8"/>
<path d="M1261.2 920.444C1163.4 891.888 1042.62 963.788 1042.62 963.788L1104.54 1008.37L1261.2 979.269C1261.2 979.269 1359 949 1261.2 920.444Z" fill="#5CB7D4"/>
<path d="M1187.55 1003.43C1187.54 1003.42 1187.52 1003.42 1187.51 1003.42L1187.55 1003.43C1189.74 1003.73 1238.24 991.606 1262 985.461V1019.5L1187.55 1003.43Z" fill="#5CB7D4"/>
<path d="M1261.2 967.504C1223.22 976.379 1146.77 994.13 1144.79 994.13L1187.51 1012.09L1261.2 991.653V967.504Z" fill="#5CB7D4"/>
<path d="M959.024 888.245C957.786 898.152 937.971 902.487 934.256 902.487L921.253 969.361L1009.18 973.076L1023.42 865.334V852.331L1006.08 856.046L1014.75 844.9V835.612L1018.47 838.708L1023.42 831.897C1015.5 832.392 1010.63 825.911 1009.18 822.609C1012.48 822.815 1018.72 823.104 1017.23 822.609C1015.37 821.99 1004.23 795.364 1004.23 796.602C1004.23 797.593 994.732 812.702 989.985 820.132H992.462L983.793 833.755H992.462L978.839 852.331L971.409 838.708C970.913 840.194 960.882 855.427 955.928 862.857L962.74 864.096L952.832 880.814L959.024 888.245Z" fill="#286592"/>
<path d="M982.554 858.523C983.793 857.285 986.393 854.808 986.889 854.808V856.665L983.174 863.477L985.65 869.669L981.316 864.096L982.554 858.523Z" fill="#64B1DD"/>
<path d="M988.127 880.814C995.764 890.722 1011.53 911.156 1013.51 913.632L1038.9 915.49C1036.01 898.565 1029.12 865.582 1024.66 869.05C1020.2 872.517 998.448 878.338 988.127 880.814Z" fill="#3285B1"/>
<path d="M994.939 917.348C986.063 929.938 967.693 956.482 965.217 961.931L989.366 980.507C1004.43 969.568 1034.57 947.07 1034.57 944.593C1034.57 942.116 1016.82 920.444 1007.94 909.917L994.939 917.348Z" fill="#1F547E"/>
<path d="M1113.21 939.02C1111.97 937.162 1111.35 947.689 1111.35 948.308L1129.93 974.315C1130.55 973.283 1131.78 970.971 1131.78 969.98C1131.78 968.742 1114.45 940.878 1113.21 939.02Z" fill="#D0FAFF"/>
<path d="M1087.2 954.5C1078.33 947.895 1059.09 932.209 1053.14 922.301L1038.9 981.126L1128.69 989.176L1129.31 981.126L1124.35 976.792L1131.16 974.934L1123.73 963.788L1124.35 961.312C1120.39 959.33 1114.45 946.863 1111.97 940.878L1098.35 966.884C1092.4 967.38 1085.14 958.835 1082.25 954.5H1087.2Z" fill="#2D5F90"/>
<path d="M825.276 922.301L822.18 923.54L819.083 933.447C824.863 943.767 837.412 964.036 841.375 962.55C846.329 960.692 838.898 952.643 838.898 950.785C838.898 948.927 831.468 944.593 836.421 945.831C840.384 946.822 839.724 944.593 838.898 943.355C836.628 938.814 831.591 928.989 829.61 926.017C827.629 923.045 825.895 922.301 825.276 922.301Z" fill="#DCFDFF"/>
<path d="M994.938 915.49L1009.8 922.921L1026.52 896.914L1060.57 880.814L1070.48 878.957C1073.58 876.48 1051.91 863.477 1050.67 862.238C1049.68 861.248 1047.36 861 1046.33 861L1060.57 857.904C1060.99 856.665 1061.94 853.569 1062.43 851.092C1062.93 848.616 1052.73 840.566 1047.57 836.851L1040.14 822.609L1059.96 825.086L1056.86 821.371L1042 799.079L1044.48 794.745C1043.86 792.061 1041.87 785.209 1038.9 779.264C1035.93 773.32 1033.95 771.834 1033.33 771.834L1031.47 785.456L1035.81 855.427L1014.75 889.483C1008.35 895.675 995.31 908.555 994.319 910.536C993.328 912.518 994.319 914.665 994.938 915.49Z" fill="#DDF4F9"/>
<path d="M1004.85 928.494C1003.86 941.373 975.95 968.948 962.121 981.126L1109.49 991.033C1102.05 990.529 1068.42 955.324 1052.52 937.782C1056.98 941.745 1058.92 938.607 1059.34 936.543V927.874C1073.7 932.828 1081.83 933.241 1084.1 932.828C1059.34 904.097 1055.62 889.483 1056.86 885.768L1069.86 879.576L1065.53 878.957L1062.43 877.718C1057.97 876.728 1052.73 866.16 1050.67 861L1062.43 858.523C1058.72 854.189 1050.79 844.9 1048.81 842.424C1046.83 839.947 1047.16 830.246 1047.57 825.705L1058.1 825.086C1043.24 816.169 1039.11 803.62 1038.9 798.46L1044.48 803.413V799.079L1031.47 776.788L1020.95 803.413H1025.9C1024.41 810.349 1017.02 818.274 1013.51 821.371L1017.23 823.228L1027.14 817.036L1030.23 818.274L1019.71 833.755L1024.66 834.374V838.089L1004.85 862.238L1022.8 864.096C1020.82 871.031 1006.29 883.498 999.273 888.864L1001.13 892.579H1016.61C1019.09 898.524 1001.96 914.045 993.081 921.063L1004.85 928.494Z" fill="#214168"/>
<path d="M938.59 887.626C935.288 884.53 927.94 877.718 924.968 875.242L915.061 905.583L942.306 927.255C946.64 928.494 955.804 930.723 957.786 929.732C959.767 928.741 950.768 921.063 946.021 917.348L926.826 908.679L946.021 901.868L938.59 887.626Z" fill="#CFF0F5"/>
<path d="M895.865 934.066C894.008 945.212 864.286 965.027 860.57 966.884L993.081 978.03L955.928 947.07L973.885 942.735L950.975 930.97C948.911 927.049 944.535 918.958 943.544 917.967C942.553 916.976 948.085 918.38 950.975 919.205L937.971 906.821L955.928 904.344L944.783 898.152C937.847 898.648 930.334 886.8 927.445 880.814C929.922 879.328 935.495 884.736 937.971 887.626C939.953 889.112 947.466 886.181 950.975 884.53C941.563 884.53 940.861 877.099 941.687 873.384L923.11 843.662C909.735 873.384 897.723 883.291 893.388 884.53V889.483L912.584 882.672L910.107 889.483L920.014 882.672C921.996 886.635 909.281 898.772 902.676 904.344C885.339 913.261 873.986 927.874 870.478 934.066C873.945 935.552 886.371 931.383 892.15 929.113L887.196 940.878L895.865 934.066Z" fill="#224674"/>
<path d="M771.404 932.828L748.494 976.173L791.838 973.076L771.404 932.828Z" fill="#2C709D"/>
<path d="M811.034 946.451L796.792 966.265L839.517 961.312L832.706 947.689C832.211 946.698 837.04 948.927 839.517 950.166L838.279 944.593C832.83 939.144 825.275 926.636 822.179 921.063L805.461 947.689L811.034 946.451Z" fill="#2C709D"/>
<path d="M302.045 864.715C301.425 863.477 293.376 849.854 290.899 846.139L277.895 881.434C272.529 886.181 260.805 896.79 256.842 901.248C252.879 905.707 263.447 920.031 269.227 926.636L336.101 961.931L321.24 940.258L328.671 942.116L324.336 930.97L303.902 911.156C307.411 913.426 315.048 917.348 317.525 914.871C320.002 912.394 316.906 905.996 315.048 903.106L285.326 871.526H302.045C302.251 869.669 302.54 865.706 302.045 864.715Z" fill="#B7EBF9"/>
<path d="M326.194 963.169C325.574 973.696 352.82 986.699 355.296 989.795L219.69 950.785L248.793 923.54L238.266 921.063C243.715 922.054 268.607 901.248 280.372 890.722L274.799 884.53L253.55 891.815C253.382 891.91 253.24 891.96 253.127 891.96L253.55 891.815C256.325 890.242 266.219 876.251 271.084 869.05C267.369 870.288 259.815 872.765 259.319 872.765C258.824 872.765 269.846 854.189 275.419 844.9L267.369 845.52L285.945 807.129L298.329 833.135H293.995L300.806 849.235H292.756C292.756 855.675 301.838 870.082 306.379 876.48L297.091 874.003L307.617 895.056L289.66 879.576H287.803C287.307 890.474 309.062 906.821 320.002 913.633L323.098 927.255L310.094 917.348C309.599 920.815 326.4 938.607 334.863 947.07L313.19 937.782C313.686 942.735 329.909 956.771 337.959 963.169H326.194Z" fill="#285D89"/>
<path d="M175.107 891.96C181.505 905.996 194.426 934.686 194.921 937.162L108.852 916.109L125.57 885.768H108.852L122.474 860.381H115.663V857.904C123.589 853.941 133.413 836.438 137.335 828.182L126.809 829.42L126.189 828.182C127.18 827.686 137.748 804.445 142.908 792.887L135.478 792.268C136.468 792.268 146.623 772.04 151.577 761.927C151.082 764.899 160.865 783.392 165.819 792.268H159.007C156.531 795.735 167.47 813.114 173.249 821.37L162.103 821.99L175.107 844.281L164.58 841.185L180.68 869.05L172.011 867.192L189.968 891.96H175.107Z" fill="#275682"/>
<path d="M106.375 877.718C97.9124 875.448 80.8635 870.907 80.3681 870.907L50.027 858.523L19.6858 752.019L-0.128906 730.347L11.636 700.625L35.166 727.251C40.1196 730.553 51.6369 737.406 58.0767 738.397C64.5164 739.387 66.5392 747.891 66.7456 752.019L38.262 738.397L41.9772 759.45C45.8989 758.211 54.2376 756.106 56.219 757.592C58.6959 759.45 70.4608 765.023 78.5105 774.93C84.9503 782.856 79.5425 784.837 76.0337 784.837L38.8812 762.546L50.027 802.794C58.0767 807.748 75.9099 819.637 82.845 827.563C89.7801 835.488 79.9553 836.644 74.1761 836.231L56.8382 834.374L86.5602 850.473C90.8947 854.395 100.307 863.105 103.279 866.573C106.251 870.04 106.581 875.448 106.375 877.718Z" fill="#C6F1FD"/>
<path d="M104.517 908.679C52.5038 893.405 -52.0185 862.857 -54 862.857L-43.4899 850.106L-69 845.5L-28.4786 831.893L-21.7362 823.713L-39.5 819V813L-1.36731 799L-19.3243 783.599C-19.1179 783.392 -17.3429 781.741 -11.8938 776.788C-6.44482 771.834 3.17355 756.56 7.30161 749.542V745.827L2.96715 746.446L-10.6554 758.211L-15.6091 756.973L-11.2746 739.635C3.09099 726.755 11.6361 713.215 14.1129 708.055L9.77843 707.436L8.54002 710.532L-1.36731 709.294V705.579C7.05392 696.167 12.8745 681.017 14.7321 674.618L4.82477 677.095L22.7818 646.135L49.4078 680.191L45.0733 681.429L35.7707 676.778C35.7755 676.882 35.7803 676.988 35.7852 677.095C36.2805 687.993 50.4398 707.643 57.4575 716.105L43.2157 717.344L67.3648 752.638L56.8382 755.734L45.6925 745.208L41.9773 748.923V752.019C52.38 765.889 70.6672 780.503 78.5105 786.076L61.1727 786.695L47.5501 773.072C45.0733 777.531 75.4145 810.431 90.8947 826.324V829.42L83.4642 830.659C78.5105 828.182 60.7599 815.178 52.5038 808.986C53.123 819.513 68.6032 830.659 71.08 832.516C73.0615 834.002 87.1794 849.648 93.9907 857.285C87.0556 851.836 75.8273 845.932 71.08 843.662C69.2224 852.331 83.4642 861.619 84.0834 862.238C84.5788 862.734 99.9764 873.59 107.613 878.957H100.802L120.617 901.868L85.3218 884.53L104.517 908.679Z" fill="#25426C"/>
<path d="M-30.5002 882C-138 914 -102.5 932.5 -102.5 932.5C-102.5 932.5 -63.0002 920.5 -4.00015 922.5C54.9998 924.5 440.318 1088 440.318 1088L474.999 1030.51C410.05 1008.92 263.001 960.063 194.395 937.308C125.789 914.553 76.9999 850 -30.5002 882Z" fill="#B9E5E6"/>
<path d="M-20.0002 965.5C16.4998 956.5 84.5142 938.144 139.5 953.5C194.486 968.856 354.264 1042.63 408.548 1061.62L367.061 1127.88L-15.3433 988.784L-17.5002 988L-20.0002 965.5Z" fill="#6FC7DD"/>
<path d="M426 1086C426 1086 56.9999 980 -12.0001 987.5C-81.0001 995 -12.0001 1038.04 -12.0001 1038.04L88.9815 1069.4L426 1086Z" fill="#59C1DE"/>
<path d="M1256.24 1010.85C830.849 922.921 768.928 965.027 571.4 1005.89L1263.06 1153.27V1012L1256.24 1010.85Z" fill="#FCFCF0"/>
<path d="M729.298 982.984C637.16 996.359 555.507 1013.74 526.198 1020.76V1083.91L1261.2 1134.69V1043.05L1212.9 1026.33C982.555 961.931 844.471 966.265 729.298 982.984Z" fill="#D9F1EA"/>
<path d="M542.297 1012.09C506.796 1020.14 407.31 1045.28 293.376 1081.44L378.826 1120.45L1028.38 1062.86C1010.05 1054.94 982.761 1045.94 971.409 1042.43C936.114 1032.31 844.842 1008.99 762.116 996.606C679.39 984.222 581.101 1001.77 542.297 1012.09Z" fill="#A9E0E5"/>
<path d="M438.27 1091.35C383.78 1109.18 342.087 1130.15 328.051 1138.41L906.392 1243.67L1061.19 1102.49C1021.98 1090.52 926.454 1046.02 838.279 1038.09C750.104 1030.17 661.598 1034.79 643.847 1038.09C589.357 1042.22 492.761 1073.51 438.27 1091.35Z" fill="#69C4D9"/>
<path d="M824.037 1085.77C729.422 1105.59 627.748 1144.8 588.738 1161.93V1214.57L1259.96 1274.01L1264 1019C1244.19 1020.44 1182.06 1025.83 1108.25 1033.76C1015.99 1043.67 942.306 1061 824.037 1085.77Z" fill="#FDFFF5"/>
<path d="M854.997 1087.01C752.457 1107.32 636.417 1146.66 591.215 1163.79V1217.66L1259.34 1275.87L1270.5 1036C1251.68 1037.49 1173.48 1035.41 1142.31 1039.33C1025.28 1056.05 983.174 1061.62 854.997 1087.01Z" fill="#FCFEF3"/>
<path d="M776.977 1162.55L661.186 1208.99L1259.96 1268.44C1259.96 1268.44 1388 1040.5 1244 1063C1100 1085.5 1063 1094 1063 1094L776.977 1162.55Z" fill="#B1E0E6"/>
<path d="M763.792 1231.62L648 1278.06L1565.5 1258.5C1565.5 1258.5 1377.05 1114.62 1246.77 1112.12C1116.5 1109.62 1042.5 1136.5 1042.5 1136.5L763.792 1231.62Z" fill="#58BED7"/>
<path d="M886.577 1163.17C818.258 1186.7 679.638 1234.01 671.712 1235L1709.5 1282C1709.5 1282 1493.5 1184 1328.5 1181.5C1163.5 1179 954.896 1139.64 886.577 1163.17Z" fill="#56B5D1"/>
<path d="M1123.5 1221.5C1043.5 1247 833.945 1233.76 833.945 1233.76V1259.15L1865.5 1278.5C1865.5 1278.5 1507.54 1250 1386.54 1223C1265.54 1196 1203.5 1196 1123.5 1221.5Z" fill="#2A6D9D"/>
<path d="M211.64 1059.77L-45 1001L-8.17871 1200.94L974.505 1255.44L811.034 1210.85L474.804 1115.49L211.64 1059.77Z" fill="#FCFCF0"/>
<path d="M341.321 1109.78C341.321 1109.78 9.99994 1000 -43.0001 1025C-96.0001 1050 -8.3928 1178.31 -8.3928 1178.31L948.359 1283L962 1254.45L767.922 1206.86L551.521 1155.46L341.321 1109.78Z" fill="#D2EFEA"/>
<path d="M-60.5002 1049.5V1174.5L-9.41724 1312.41L1270.38 1384.23L1262.35 1261.75C1380.32 1259.82 1543.63 1257.13 1253.09 1261.75C889.899 1267.52 560.685 1217.5 411.211 1188.64C291.632 1165.56 96.4998 1027 -60.5002 1049.5Z" fill="#91D7E3"/>
<path d="M530.532 1257.29C530.532 1257.29 11.4998 1041 -61.0002 1072.5C-133.5 1104 -61.0002 1214 -61.0002 1214L383.78 1265.34L530.532 1257.29Z" fill="#66C0D8"/>
<path d="M130.788 1166.3C24.9472 1143.4 -69.1675 1126.33 -93.0002 1132C-154 1146.5 -93.0002 1398 -93.0002 1398H1264L1790.5 1279.5L1264 1251.92H858.095C613.294 1251.92 370.052 1218.07 130.788 1166.3Z" fill="#3FA6C9"/>
<path d="M98 1233C190.8 1218.2 437 1260.5 548.5 1283.5L503 1343L-258 1277C-258 1276.17 -248.9 1272.7 -212.5 1265.5C-176.1 1258.3 -133.667 1257.5 -117 1258C-36.5 1258 -18 1251.5 98 1233Z" fill="#58BED7"/>
<path d="M1375.52 908.544C1323.5 893.271 1217.98 879 1216 879L1234.57 851.247L1202 845.365L1249.1 829.551L1252.52 824.441L1231.5 818.865V812.865L1269.63 798.865L1251.68 783.464C1251.88 783.258 1253.66 781.607 1259.11 776.653C1264.56 771.699 1274.17 756.425 1278.3 749.408V745.693L1273.97 746.312L1260.34 758.077L1255.39 756.838L1259.73 739.5C1274.09 726.621 1282.64 713.081 1285.11 707.921L1280.78 707.302L1279.54 710.398L1269.63 709.159V705.444C1278.05 696.032 1283.87 680.882 1285.73 674.484L1275.82 676.96L1293.78 646L1320.41 680.056L1316.07 681.295L1306.77 676.644C1306.78 676.748 1306.78 676.853 1306.79 676.96C1307.28 687.859 1321.44 707.508 1328.46 715.971L1314.22 717.209L1338.36 752.504L1327.84 755.6L1316.69 745.073L1312.98 748.789V751.885C1323.38 765.755 1341.67 780.368 1349.51 785.941L1332.17 786.56L1318.55 772.938C1316.07 777.396 1346.41 810.297 1361.89 826.19V829.286L1354.46 830.524C1349.51 828.047 1331.76 815.044 1323.5 808.852C1324.12 819.378 1339.6 830.524 1342.08 832.382C1344.06 833.868 1358.18 849.513 1364.99 857.15C1358.06 851.701 1346.83 845.798 1342.08 843.527C1340.22 852.196 1354.46 861.484 1355.08 862.104C1355.58 862.599 1370.98 873.456 1378.61 878.822H1371.8L1391.62 901.733L1356.32 884.395L1375.52 908.544Z" fill="#25426C"/>
<path d="M1382.5 907C1270.5 871 1212.83 876.333 1198 883.5L1307.5 910.5C1379.17 924.333 1494.5 943 1382.5 907Z" fill="#CEF0E8"/>
</g>
<defs>
<clipPath id="clip0_19_839">
<rect width="3804" height="1275" fill="white"/>
</clipPath>
</defs>
</svg>
